<?xml version="1.0" encoding="utf-8"?>
<!-- Generator: Adobe Illustrator 25.0.1, SVG Export Plug-In . SVG Version: 6.00 Build 0)  -->
<svg version="1.1" id="Layer_1" xmlns="http://www.w3.org/2000/svg" xmlns:xlink="http://www.w3.org/1999/xlink" x="0px" y="0px"
	 viewBox="0 0 1366 455.4" style="enable-background:new 0 0 1366 455.4;" xml:space="preserve">
<style type="text/css">
	.st0{fill:#FAE31A;}
</style>
<path class="st0" d="M1283.5,138.3c-44.7-8-89.4-16.1-134.1-24.1c-8.2-1.5-16.4-2.9-24.6-4.3c-8.2-1.4-16.4-2.8-24.6-4.2
	c-27.7-5-55.4-10-83.2-14.9c-33.2-5.9-66.5-11.6-99.8-17.6c-26.5-4.7-53.1-9.7-79.6-14.4c-33-5.9-66.1-11.6-99.1-17.5
	c-34.5-6.1-68.9-12.4-103.3-18.5c-28.9-5.1-57.9-10.3-86.8-15.3C522,3,495.6,2,469.3,7.3C451.1,11,434,17.5,417.2,25.1
	c-18.8,8.6-36.7,18.8-54.3,29.3c-22.2,13.2-43.9,27.1-66,40.5c-12.8,7.8-26,15-38.8,22.7c-6.6,4-13.6,7.5-20.1,11.6
	c-16.6,10.5-33.9,19.6-50.8,29.6c-10.8,6.4-22,12.2-32.6,19c-2.2,1-4.5,1.8-6.6,3c-10.1,5.7-20.1,11.6-30.3,17.1
	c-23.6,12.8-47.2,25.6-71,38c-15.6,8.2-31,17-46.8,24.9v16.1v49.7v41.3v85.8h278.1h127.8H426h19h76h845V347.5V210.7v-58
	C1338.5,147.9,1311,143.2,1283.5,138.3z"/>
</svg>
