<?xml version="1.0" encoding="utf-8"?>
<!-- Generator: Adobe Illustrator 25.0.1, SVG Export Plug-In . SVG Version: 6.00 Build 0)  -->
<svg version="1.1" id="Layer_1" xmlns="http://www.w3.org/2000/svg" xmlns:xlink="http://www.w3.org/1999/xlink" x="0px" y="0px"
	 viewBox="0 0 180 533" style="enable-background:new 0 0 180 533;" xml:space="preserve">
<g>
	<path d="M34.1,98.9h61.8c20.3,0,31.5,9.9,31.5,27.9c0,17.7-11.5,25.7-31.5,25.7H34.1c-11,0-18.3-0.7-29.2-4.5v27.6
		c10.8-3.8,18.3-5.1,29.2-5.1h61c15.6,0,41.7-4.9,41.7-38.1c0-14.9-5.4-39.9-41.9-39.9H34.1c-10.6,0-18-1.4-29.2-5.3v17.4
		C16.3,99.7,23.7,98.9,34.1,98.9z"/>
	<path d="M129,249l2.1-3.2c3.5-5.4,5.3-11.2,5.3-17.4c0-26-27.3-44.2-66.4-44.2c-39.4,0-68,17.8-68,42.2c0,13.2,6.7,24.4,19.3,32.4
		c12,7.6,28.9,11.8,47.5,11.8c0.2,0,0.4,0,0.6,0l1.2,0v0c6.6,0,13.1-0.7,19.4-1.8l0.3,0.6l-0.1-0.6c0.9-0.2,1.8-0.4,2.7-0.6
		c0.5-0.1,0.9-0.2,1.4-0.3l0.7-0.2c0.4-0.1,0.9-0.2,1.3-0.3c0.7-0.2,1.5-0.4,2.2-0.6c77.6-25,78.4-94.5,79.4-99l-32.5,0.3
		C147.9,240.3,129,249,129,249z M4.9,230.7c0-18.6,29.6-31.1,73.8-31.1c34.1,0,54.5,9.2,54.5,24.6c0,19.4-23,30.6-63.2,30.6
		C39.9,254.8,4.9,248.5,4.9,230.7z"/>
	<path d="M10.2,54.1l-0.6,0V43.4c0-25.5,19.6-36.7,27.5-40.2H4.9v72.4c11.1-4.1,20.2-4.9,31-4.9h67c10.9,0,19.9,0.8,31,4.9V3.2
		h-33.2c7.7,3.7,28.5,15.9,28.5,38.5v12l-0.6,0.1c-9.3,1.1-17.9,1.2-25.7,1.2H75.2L75,54.5c-4.4-15.5,5.9-37.7,8.3-42.6H55
		c0.2,20.2,8.9,33.9,16.2,41.9l1,1.1H35.9C26.2,54.9,17.8,54.7,10.2,54.1z"/>
	<path d="M88.8,508.3l-0.1,0H86v-10.5c0-27.6-17.6-46.1-43.7-46.1c-24.9,0-37.5,15-37.5,44.7v32.4c11.1-4.1,20.2-4.9,31-4.9h50
		c29.6,0.8,44.5,3.7,48,4.4v-45.8C124.8,497,111.1,504.8,88.8,508.3z M80.7,509.4c-13.7,1.5-29.6,1.7-44.8,1.7
		c-9.9,0-18.3-0.3-25.7-0.8l-0.5,0l0-0.5c-0.2-2.2-0.2-6.7-0.2-8.4c0-21.8,12.1-32.3,37-32.3c22.2,0,34.9,11.3,34.9,30.9v9.5
		L80.7,509.4z"/>
	<path d="M84.6,312.9c-0.1,0.1-0.1,0.3-0.2,0.4c-0.5,1.2-1.1,2.9-1.8,4.8c-0.1,0.2-0.1,0.4-0.2,0.7c-1.5,4.8-3.1,11.2-4.5,16.1v-5.6
		c0-21-6.4-46.1-37-46.1c-32.4,0-36.1,25.5-36.1,44.7v32.4c11.1-4.1,20.2-4.9,31-4.9l98,0v-32.6c-7.9,10.6-26.4,17.1-55.3,19.2
		l-0.7,0.1c0-1.3,0.5-4.1,1.4-7.1c0,0,0,0,0,0c1-3.2,2.3-6,3.8-8.6c0.1-0.1,0.2-0.3,0.3-0.4c13.6-22.3,45.4-20.8,50.6-20.4V270
		C128.6,271.6,97.5,282.2,84.6,312.9z M73.2,342.3l-0.6,0c-3.1,0.2-6.3,0.3-9.5,0.3l-27.2-0.7c-2,0-4.2-0.1-6.6-0.2
		c-3.7-0.2-7.3-0.6-10.7-0.9c-2.9-0.3-5.6-0.6-8.4-0.8l-0.5,0l0-0.5c-0.2-2.2-0.2-5.2-0.2-6.7c0-22.1,11.3-32.3,35.6-32.3
		c23.4,0,28.2,12.4,28.2,30.9V342.3z"/>
	<path d="M4.9,411.9v8.5l98.8,30.9c14.7,4.7,23.1,8.7,30.3,14.5v-21c-3.7,1.8-9,2.2-13,2.2c-4.6,0-9.7-0.6-14.2-1.8l-0.1,0
		c-2.7-0.6-5.2-1.3-7.5-2.2c-10.4-3.9-15.6-10.6-15.6-19.7c0-11.5,7.6-20.8,20-24.9l0-0.1l0.8-0.2c0.8-0.2,1.6-0.4,2.5-0.6l0.8-0.2
		l0,0l0.1,0v0c1.3-0.3,2.6-0.5,3.9-0.7l1.3-0.2l0,0c2.4-0.3,4.9-0.4,7.4-0.4c5.2,0,10.3,0.6,13.6,1.6V367
		c-7.5,5.8-16.6,9.3-30.2,13.7L4.9,411.9z M82.7,405l0.1,0.1c0,0,0,0,0,0c0,0,0,0,0,0l0.4,0.5l-0.3,0.2c-0.1,0-0.1,0.1-0.2,0.1
		c-0.1,0-0.1,0.1-0.2,0.1c-10.4,13.8-11.9,27.6-11.9,27.7l-0.1,0.8l-44.1-13.4l56.1-16.7L82.7,405z"/>
</g>
</svg>
